<mxfile host="Electron" modified="2023-04-26T21:56:51.461Z" agent="Mozilla/5.0 (X11; Linux x86_64) AppleWebKit/537.36 (KHTML, like Gecko) draw.io/21.1.2 Chrome/106.0.5249.199 Electron/21.4.3 Safari/537.36" etag="8d_uJ1RJYmhnzjfO4Pz9" version="21.1.2" type="device" pages="2">
  <diagram id="prtHgNgQTEPvFCAcTncT" name="Page-1">
    <mxGraphModel dx="2074" dy="1039" grid="1" gridSize="10" guides="1" tooltips="1" connect="1" arrows="1" fold="1" page="1" pageScale="1" pageWidth="827" pageHeight="1169" math="0" shadow="0">
      <root>
        <mxCell id="0" />
        <mxCell id="1" parent="0" />
        <mxCell id="dNxyNK7c78bLwvsdeMH5-19" value="ZOTI Synthesis Flow" style="swimlane;html=1;childLayout=stackLayout;resizeParent=1;resizeParentMax=0;horizontal=0;startSize=20;horizontalStack=0;" parent="1" vertex="1">
          <mxGeometry x="10" y="10" width="810" height="430" as="geometry" />
        </mxCell>
        <mxCell id="dNxyNK7c78bLwvsdeMH5-20" value="Project&lt;br&gt;Files" style="swimlane;html=1;startSize=30;horizontal=0;" parent="dNxyNK7c78bLwvsdeMH5-19" vertex="1">
          <mxGeometry x="20" width="790" height="110" as="geometry">
            <mxRectangle x="20" width="430" height="30" as="alternateBounds" />
          </mxGeometry>
        </mxCell>
        <mxCell id="8JhQtjsmq_hKnZak356e-7" value="" style="group" parent="dNxyNK7c78bLwvsdeMH5-20" vertex="1" connectable="0">
          <mxGeometry x="60" y="10" width="40" height="50" as="geometry" />
        </mxCell>
        <mxCell id="8JhQtjsmq_hKnZak356e-10" value="" style="group" parent="8JhQtjsmq_hKnZak356e-7" vertex="1" connectable="0">
          <mxGeometry width="40" height="50" as="geometry" />
        </mxCell>
        <mxCell id="8JhQtjsmq_hKnZak356e-5" value="app sources" style="html=1;verticalLabelPosition=bottom;align=center;labelBackgroundColor=#ffffff;verticalAlign=top;strokeWidth=2;strokeColor=#0080F0;shadow=0;dashed=0;shape=mxgraph.ios7.icons.documents;" parent="8JhQtjsmq_hKnZak356e-10" vertex="1">
          <mxGeometry width="40" height="50" as="geometry" />
        </mxCell>
        <mxCell id="8JhQtjsmq_hKnZak356e-6" value=".zog" style="text;html=1;strokeColor=none;fillColor=none;align=center;verticalAlign=middle;whiteSpace=wrap;rounded=0;" parent="8JhQtjsmq_hKnZak356e-10" vertex="1">
          <mxGeometry y="15" width="30" height="30" as="geometry" />
        </mxCell>
        <mxCell id="8JhQtjsmq_hKnZak356e-28" value="" style="group" parent="dNxyNK7c78bLwvsdeMH5-20" vertex="1" connectable="0">
          <mxGeometry x="140" y="10" width="40" height="50" as="geometry" />
        </mxCell>
        <mxCell id="8JhQtjsmq_hKnZak356e-29" value="" style="group" parent="8JhQtjsmq_hKnZak356e-28" vertex="1" connectable="0">
          <mxGeometry width="40" height="50" as="geometry" />
        </mxCell>
        <mxCell id="8JhQtjsmq_hKnZak356e-30" value="type spec&lt;br&gt;files" style="html=1;verticalLabelPosition=bottom;align=center;labelBackgroundColor=#ffffff;verticalAlign=top;strokeWidth=2;strokeColor=#0080F0;shadow=0;dashed=0;shape=mxgraph.ios7.icons.documents;" parent="8JhQtjsmq_hKnZak356e-29" vertex="1">
          <mxGeometry width="40" height="50" as="geometry" />
        </mxCell>
        <mxCell id="8JhQtjsmq_hKnZak356e-31" value=".ftn" style="text;html=1;strokeColor=none;fillColor=none;align=center;verticalAlign=middle;whiteSpace=wrap;rounded=0;" parent="8JhQtjsmq_hKnZak356e-29" vertex="1">
          <mxGeometry y="15" width="30" height="30" as="geometry" />
        </mxCell>
        <mxCell id="8JhQtjsmq_hKnZak356e-75" value="" style="edgeStyle=orthogonalEdgeStyle;rounded=0;orthogonalLoop=1;jettySize=auto;html=1;" parent="dNxyNK7c78bLwvsdeMH5-19" source="8JhQtjsmq_hKnZak356e-73" target="8JhQtjsmq_hKnZak356e-65" edge="1">
          <mxGeometry relative="1" as="geometry" />
        </mxCell>
        <mxCell id="dNxyNK7c78bLwvsdeMH5-21" value="Tool Flow" style="swimlane;html=1;startSize=30;horizontal=0;" parent="dNxyNK7c78bLwvsdeMH5-19" vertex="1">
          <mxGeometry x="20" y="110" width="790" height="210" as="geometry" />
        </mxCell>
        <mxCell id="8JhQtjsmq_hKnZak356e-114" value="" style="rounded=0;whiteSpace=wrap;html=1;fillColor=none;strokeColor=#b85450;dashed=1;strokeWidth=2;" parent="dNxyNK7c78bLwvsdeMH5-21" vertex="1">
          <mxGeometry x="420" y="40" width="350" height="160" as="geometry" />
        </mxCell>
        <mxCell id="8JhQtjsmq_hKnZak356e-22" value="" style="edgeStyle=orthogonalEdgeStyle;rounded=0;orthogonalLoop=1;jettySize=auto;html=1;entryX=0.053;entryY=0.493;entryDx=0;entryDy=0;entryPerimeter=0;" parent="dNxyNK7c78bLwvsdeMH5-21" source="ebs-tWVnCiQXyDpTx4YO-1" target="8JhQtjsmq_hKnZak356e-23" edge="1">
          <mxGeometry relative="1" as="geometry">
            <mxPoint x="190" y="60" as="targetPoint" />
          </mxGeometry>
        </mxCell>
        <mxCell id="8JhQtjsmq_hKnZak356e-18" value="ZOTI-YAML" style="rhombus;whiteSpace=wrap;html=1;" parent="dNxyNK7c78bLwvsdeMH5-21" vertex="1">
          <mxGeometry x="40" y="126.28" width="80" height="80" as="geometry" />
        </mxCell>
        <mxCell id="8JhQtjsmq_hKnZak356e-47" style="edgeStyle=orthogonalEdgeStyle;rounded=0;orthogonalLoop=1;jettySize=auto;html=1;exitX=1;exitY=0.5;exitDx=0;exitDy=0;exitPerimeter=0;entryX=0.5;entryY=1;entryDx=0;entryDy=0;" parent="dNxyNK7c78bLwvsdeMH5-21" source="8JhQtjsmq_hKnZak356e-23" target="8JhQtjsmq_hKnZak356e-44" edge="1">
          <mxGeometry relative="1" as="geometry" />
        </mxCell>
        <mxCell id="8JhQtjsmq_hKnZak356e-23" value="AppGraph" style="sketch=0;aspect=fixed;pointerEvents=1;shadow=0;dashed=0;html=1;strokeColor=none;labelPosition=center;verticalLabelPosition=bottom;verticalAlign=top;align=center;fillColor=#00188D;shape=mxgraph.azure.code_file" parent="dNxyNK7c78bLwvsdeMH5-21" vertex="1">
          <mxGeometry x="260" y="144.99999999999997" width="40" height="42.55" as="geometry" />
        </mxCell>
        <mxCell id="S4RugOadntE1pTgWc9Wk-1" style="edgeStyle=orthogonalEdgeStyle;rounded=0;orthogonalLoop=1;jettySize=auto;html=1;exitX=1;exitY=0.5;exitDx=0;exitDy=0;entryX=0;entryY=0.5;entryDx=0;entryDy=0;entryPerimeter=0;" parent="dNxyNK7c78bLwvsdeMH5-21" source="8JhQtjsmq_hKnZak356e-32" target="8JhQtjsmq_hKnZak356e-36" edge="1">
          <mxGeometry relative="1" as="geometry" />
        </mxCell>
        <mxCell id="8JhQtjsmq_hKnZak356e-32" value="ZOTI-FTN&lt;br&gt;&lt;font style=&quot;font-size: 10px;&quot;&gt;(parser)&lt;/font&gt;" style="rhombus;whiteSpace=wrap;html=1;" parent="dNxyNK7c78bLwvsdeMH5-21" vertex="1">
          <mxGeometry x="120" y="8.73" width="80" height="80" as="geometry" />
        </mxCell>
        <mxCell id="8JhQtjsmq_hKnZak356e-45" value="" style="edgeStyle=orthogonalEdgeStyle;rounded=0;orthogonalLoop=1;jettySize=auto;html=1;entryX=0.5;entryY=0;entryDx=0;entryDy=0;" parent="dNxyNK7c78bLwvsdeMH5-21" source="8JhQtjsmq_hKnZak356e-36" target="8JhQtjsmq_hKnZak356e-44" edge="1">
          <mxGeometry relative="1" as="geometry" />
        </mxCell>
        <mxCell id="8JhQtjsmq_hKnZak356e-36" value="FtnDb" style="sketch=0;aspect=fixed;pointerEvents=1;shadow=0;dashed=0;html=1;strokeColor=none;labelPosition=center;verticalLabelPosition=bottom;verticalAlign=top;align=center;fillColor=#00188D;shape=mxgraph.azure.code_file" parent="dNxyNK7c78bLwvsdeMH5-21" vertex="1">
          <mxGeometry x="260" y="27.449999999999964" width="40" height="42.55" as="geometry" />
        </mxCell>
        <mxCell id="8JhQtjsmq_hKnZak356e-86" style="edgeStyle=orthogonalEdgeStyle;rounded=0;orthogonalLoop=1;jettySize=auto;html=1;exitX=1;exitY=0.5;exitDx=0;exitDy=0;entryX=0;entryY=0.5;entryDx=0;entryDy=0;" parent="dNxyNK7c78bLwvsdeMH5-21" source="8JhQtjsmq_hKnZak356e-44" target="8JhQtjsmq_hKnZak356e-83" edge="1">
          <mxGeometry relative="1" as="geometry">
            <Array as="points">
              <mxPoint x="410" y="107" />
              <mxPoint x="410" y="159" />
              <mxPoint x="435" y="159" />
            </Array>
          </mxGeometry>
        </mxCell>
        <mxCell id="8JhQtjsmq_hKnZak356e-44" value="ZOTI-Tran&lt;br&gt;&lt;font style=&quot;font-size: 9px;&quot;&gt;(graph2block)&lt;/font&gt;" style="rhombus;whiteSpace=wrap;html=1;verticalAlign=middle;sketch=0;shadow=0;dashed=0;align=center;" parent="dNxyNK7c78bLwvsdeMH5-21" vertex="1">
          <mxGeometry x="310" y="70" width="80" height="75" as="geometry" />
        </mxCell>
        <mxCell id="ebs-tWVnCiQXyDpTx4YO-4" style="edgeStyle=orthogonalEdgeStyle;rounded=0;orthogonalLoop=1;jettySize=auto;html=1;exitX=0.5;exitY=0;exitDx=0;exitDy=0;" parent="dNxyNK7c78bLwvsdeMH5-21" source="8JhQtjsmq_hKnZak356e-65" edge="1">
          <mxGeometry relative="1" as="geometry">
            <mxPoint x="640" y="94.07000000000005" as="targetPoint" />
          </mxGeometry>
        </mxCell>
        <mxCell id="8JhQtjsmq_hKnZak356e-65" value="ZOTI-Gen" style="rhombus;whiteSpace=wrap;html=1;verticalAlign=middle;sketch=0;shadow=0;dashed=0;align=center;" parent="dNxyNK7c78bLwvsdeMH5-21" vertex="1">
          <mxGeometry x="600" y="117.50000000000003" width="80" height="75" as="geometry" />
        </mxCell>
        <mxCell id="8JhQtjsmq_hKnZak356e-80" value="" style="group" parent="dNxyNK7c78bLwvsdeMH5-21" vertex="1" connectable="0">
          <mxGeometry x="435" y="133.72" width="40" height="40.77" as="geometry" />
        </mxCell>
        <mxCell id="8JhQtjsmq_hKnZak356e-81" value="" style="group" parent="8JhQtjsmq_hKnZak356e-80" vertex="1" connectable="0">
          <mxGeometry y="0.5355665024630543" width="40" height="40.77" as="geometry" />
        </mxCell>
        <mxCell id="8JhQtjsmq_hKnZak356e-82" value="genspec" style="html=1;verticalLabelPosition=bottom;align=center;labelBackgroundColor=#ffffff;verticalAlign=top;strokeWidth=2;strokeColor=#0080F0;shadow=0;dashed=0;shape=mxgraph.ios7.icons.documents;" parent="8JhQtjsmq_hKnZak356e-81" vertex="1">
          <mxGeometry width="40" height="40.77" as="geometry" />
        </mxCell>
        <mxCell id="8JhQtjsmq_hKnZak356e-83" value=".zoc" style="text;html=1;strokeColor=none;fillColor=none;align=center;verticalAlign=middle;whiteSpace=wrap;rounded=0;" parent="8JhQtjsmq_hKnZak356e-81" vertex="1">
          <mxGeometry y="12.231000000000002" width="30" height="24.462000000000003" as="geometry" />
        </mxCell>
        <mxCell id="8JhQtjsmq_hKnZak356e-87" value="" style="edgeStyle=orthogonalEdgeStyle;rounded=0;orthogonalLoop=1;jettySize=auto;html=1;exitX=1.002;exitY=0.5;exitDx=0;exitDy=0;exitPerimeter=0;" parent="dNxyNK7c78bLwvsdeMH5-21" source="8JhQtjsmq_hKnZak356e-82" target="8JhQtjsmq_hKnZak356e-115" edge="1">
          <mxGeometry relative="1" as="geometry">
            <Array as="points">
              <mxPoint x="480" y="155" />
              <mxPoint x="480" y="155" />
            </Array>
          </mxGeometry>
        </mxCell>
        <mxCell id="8JhQtjsmq_hKnZak356e-78" value="postproc" style="rhombus;whiteSpace=wrap;html=1;verticalAlign=middle;sketch=0;shadow=0;dashed=0;align=center;" parent="dNxyNK7c78bLwvsdeMH5-21" vertex="1">
          <mxGeometry x="690" y="40.00000000000003" width="80" height="75" as="geometry" />
        </mxCell>
        <mxCell id="8JhQtjsmq_hKnZak356e-79" value="" style="edgeStyle=orthogonalEdgeStyle;rounded=0;orthogonalLoop=1;jettySize=auto;html=1;" parent="dNxyNK7c78bLwvsdeMH5-21" target="8JhQtjsmq_hKnZak356e-78" edge="1">
          <mxGeometry relative="1" as="geometry">
            <mxPoint x="652.5" y="77.43999999999994" as="sourcePoint" />
          </mxGeometry>
        </mxCell>
        <mxCell id="8JhQtjsmq_hKnZak356e-116" value="" style="edgeStyle=orthogonalEdgeStyle;rounded=0;orthogonalLoop=1;jettySize=auto;html=1;" parent="dNxyNK7c78bLwvsdeMH5-21" source="8JhQtjsmq_hKnZak356e-115" target="8JhQtjsmq_hKnZak356e-65" edge="1">
          <mxGeometry relative="1" as="geometry" />
        </mxCell>
        <mxCell id="8JhQtjsmq_hKnZak356e-115" value="ZOTI-YAML" style="rhombus;whiteSpace=wrap;html=1;" parent="dNxyNK7c78bLwvsdeMH5-21" vertex="1">
          <mxGeometry x="500" y="114.99999999999997" width="80" height="80" as="geometry" />
        </mxCell>
        <mxCell id="8JhQtjsmq_hKnZak356e-131" value="Code artifact generation" style="text;html=1;strokeColor=none;fillColor=none;align=left;verticalAlign=middle;whiteSpace=wrap;rounded=0;fontColor=#EA6B66;" parent="dNxyNK7c78bLwvsdeMH5-21" vertex="1">
          <mxGeometry x="430" y="46.23" width="195" height="16.27" as="geometry" />
        </mxCell>
        <mxCell id="ebs-tWVnCiQXyDpTx4YO-1" value="ZOTI-Graph" style="rhombus;whiteSpace=wrap;html=1;" parent="dNxyNK7c78bLwvsdeMH5-21" vertex="1">
          <mxGeometry x="150" y="126.27999999999997" width="80" height="80" as="geometry" />
        </mxCell>
        <mxCell id="ebs-tWVnCiQXyDpTx4YO-2" value="" style="edgeStyle=orthogonalEdgeStyle;rounded=0;orthogonalLoop=1;jettySize=auto;html=1;entryX=-0.013;entryY=0.497;entryDx=0;entryDy=0;entryPerimeter=0;" parent="dNxyNK7c78bLwvsdeMH5-21" source="8JhQtjsmq_hKnZak356e-18" target="ebs-tWVnCiQXyDpTx4YO-1" edge="1">
          <mxGeometry relative="1" as="geometry">
            <mxPoint x="150" y="286" as="sourcePoint" />
            <mxPoint x="352" y="286" as="targetPoint" />
            <Array as="points">
              <mxPoint x="140" y="166" />
            </Array>
          </mxGeometry>
        </mxCell>
        <mxCell id="ebs-tWVnCiQXyDpTx4YO-5" value="dependencies" style="html=1;verticalLabelPosition=bottom;align=center;labelBackgroundColor=#ffffff;verticalAlign=top;strokeWidth=2;strokeColor=#0080F0;shadow=0;dashed=0;shape=mxgraph.ios7.icons.documents;" parent="dNxyNK7c78bLwvsdeMH5-21" vertex="1">
          <mxGeometry x="625" y="56.87" width="30" height="37.5" as="geometry" />
        </mxCell>
        <mxCell id="8JhQtjsmq_hKnZak356e-101" value=".json" style="text;html=1;strokeColor=none;fillColor=none;align=center;verticalAlign=middle;whiteSpace=wrap;rounded=0;" parent="dNxyNK7c78bLwvsdeMH5-21" vertex="1">
          <mxGeometry x="625" y="62.5" width="25" height="30" as="geometry" />
        </mxCell>
        <mxCell id="dNxyNK7c78bLwvsdeMH5-22" value="External&lt;br&gt;Resources" style="swimlane;html=1;startSize=30;horizontal=0;" parent="dNxyNK7c78bLwvsdeMH5-19" vertex="1">
          <mxGeometry x="20" y="320" width="790" height="110" as="geometry" />
        </mxCell>
        <mxCell id="8JhQtjsmq_hKnZak356e-14" value="" style="group" parent="dNxyNK7c78bLwvsdeMH5-22" vertex="1" connectable="0">
          <mxGeometry x="60" y="50" width="40" height="50" as="geometry" />
        </mxCell>
        <mxCell id="8JhQtjsmq_hKnZak356e-43" value="" style="group" parent="8JhQtjsmq_hKnZak356e-14" vertex="1" connectable="0">
          <mxGeometry y="-20" width="40" height="50" as="geometry" />
        </mxCell>
        <mxCell id="8JhQtjsmq_hKnZak356e-15" value="graph libraries" style="html=1;verticalLabelPosition=bottom;align=center;labelBackgroundColor=#ffffff;verticalAlign=top;strokeWidth=2;strokeColor=#0080F0;shadow=0;dashed=0;shape=mxgraph.ios7.icons.documents;" parent="8JhQtjsmq_hKnZak356e-43" vertex="1">
          <mxGeometry width="40" height="50" as="geometry" />
        </mxCell>
        <mxCell id="8JhQtjsmq_hKnZak356e-16" value=".zog" style="text;html=1;strokeColor=none;fillColor=none;align=center;verticalAlign=middle;whiteSpace=wrap;rounded=0;" parent="8JhQtjsmq_hKnZak356e-43" vertex="1">
          <mxGeometry y="15" width="30" height="30" as="geometry" />
        </mxCell>
        <mxCell id="8JhQtjsmq_hKnZak356e-71" value="" style="group" parent="dNxyNK7c78bLwvsdeMH5-22" vertex="1" connectable="0">
          <mxGeometry x="620" y="30" width="40" height="50" as="geometry" />
        </mxCell>
        <mxCell id="8JhQtjsmq_hKnZak356e-72" value="" style="group" parent="8JhQtjsmq_hKnZak356e-71" vertex="1" connectable="0">
          <mxGeometry width="40" height="50" as="geometry" />
        </mxCell>
        <mxCell id="8JhQtjsmq_hKnZak356e-73" value="template libraries" style="html=1;verticalLabelPosition=bottom;align=center;labelBackgroundColor=#ffffff;verticalAlign=top;strokeWidth=2;strokeColor=#0080F0;shadow=0;dashed=0;shape=mxgraph.ios7.icons.documents;" parent="8JhQtjsmq_hKnZak356e-72" vertex="1">
          <mxGeometry width="40" height="50" as="geometry" />
        </mxCell>
        <mxCell id="8JhQtjsmq_hKnZak356e-74" value=".py" style="text;html=1;strokeColor=none;fillColor=none;align=center;verticalAlign=middle;whiteSpace=wrap;rounded=0;" parent="8JhQtjsmq_hKnZak356e-72" vertex="1">
          <mxGeometry y="15" width="30" height="30" as="geometry" />
        </mxCell>
        <mxCell id="8JhQtjsmq_hKnZak356e-19" value="" style="endArrow=classic;html=1;rounded=0;exitX=0.522;exitY=0.007;exitDx=0;exitDy=0;exitPerimeter=0;" parent="dNxyNK7c78bLwvsdeMH5-19" source="8JhQtjsmq_hKnZak356e-15" target="8JhQtjsmq_hKnZak356e-18" edge="1">
          <mxGeometry width="50" height="50" relative="1" as="geometry">
            <mxPoint x="80" y="240" as="sourcePoint" />
            <mxPoint x="130" y="190" as="targetPoint" />
          </mxGeometry>
        </mxCell>
        <mxCell id="8JhQtjsmq_hKnZak356e-20" value="" style="edgeStyle=orthogonalEdgeStyle;rounded=0;orthogonalLoop=1;jettySize=auto;html=1;" parent="dNxyNK7c78bLwvsdeMH5-19" source="8JhQtjsmq_hKnZak356e-5" target="8JhQtjsmq_hKnZak356e-18" edge="1">
          <mxGeometry relative="1" as="geometry" />
        </mxCell>
        <mxCell id="8JhQtjsmq_hKnZak356e-33" value="" style="edgeStyle=orthogonalEdgeStyle;rounded=0;orthogonalLoop=1;jettySize=auto;html=1;" parent="dNxyNK7c78bLwvsdeMH5-19" source="8JhQtjsmq_hKnZak356e-30" target="8JhQtjsmq_hKnZak356e-32" edge="1">
          <mxGeometry relative="1" as="geometry" />
        </mxCell>
        <mxCell id="8JhQtjsmq_hKnZak356e-62" style="edgeStyle=orthogonalEdgeStyle;rounded=0;orthogonalLoop=1;jettySize=auto;html=1;exitX=1;exitY=0.5;exitDx=0;exitDy=0;" parent="1" source="8JhQtjsmq_hKnZak356e-44" target="8JhQtjsmq_hKnZak356e-100" edge="1">
          <mxGeometry relative="1" as="geometry">
            <Array as="points">
              <mxPoint x="440" y="228" />
              <mxPoint x="440" y="130" />
            </Array>
          </mxGeometry>
        </mxCell>
        <mxCell id="8JhQtjsmq_hKnZak356e-93" value="" style="group" parent="1" vertex="1" connectable="0">
          <mxGeometry x="740" y="248.72000000000003" width="40" height="45.77" as="geometry" />
        </mxCell>
        <mxCell id="8JhQtjsmq_hKnZak356e-94" value="" style="group" parent="8JhQtjsmq_hKnZak356e-93" vertex="1" connectable="0">
          <mxGeometry y="3.4" width="40" height="45.77" as="geometry" />
        </mxCell>
        <mxCell id="8JhQtjsmq_hKnZak356e-95" value="C body" style="html=1;verticalLabelPosition=bottom;align=center;labelBackgroundColor=#ffffff;verticalAlign=top;strokeWidth=2;strokeColor=#0080F0;shadow=0;dashed=0;shape=mxgraph.ios7.icons.documents;" parent="8JhQtjsmq_hKnZak356e-94" vertex="1">
          <mxGeometry width="40" height="45.77" as="geometry" />
        </mxCell>
        <mxCell id="8JhQtjsmq_hKnZak356e-96" value=".c" style="text;html=1;strokeColor=none;fillColor=none;align=center;verticalAlign=middle;whiteSpace=wrap;rounded=0;" parent="8JhQtjsmq_hKnZak356e-94" vertex="1">
          <mxGeometry y="13.731000000000002" width="30" height="27.462000000000003" as="geometry" />
        </mxCell>
        <mxCell id="8JhQtjsmq_hKnZak356e-98" value="" style="edgeStyle=orthogonalEdgeStyle;rounded=0;orthogonalLoop=1;jettySize=auto;html=1;entryX=0.5;entryY=1;entryDx=0;entryDy=0;" parent="1" source="8JhQtjsmq_hKnZak356e-95" target="8JhQtjsmq_hKnZak356e-78" edge="1">
          <mxGeometry relative="1" as="geometry">
            <Array as="points">
              <mxPoint x="760" y="250" />
              <mxPoint x="760" y="250" />
            </Array>
          </mxGeometry>
        </mxCell>
        <mxCell id="8JhQtjsmq_hKnZak356e-103" value="" style="group" parent="1" vertex="1" connectable="0">
          <mxGeometry x="860" y="200" width="30" height="36.28" as="geometry" />
        </mxCell>
        <mxCell id="8JhQtjsmq_hKnZak356e-99" value="Typedefs" style="html=1;verticalLabelPosition=bottom;align=center;labelBackgroundColor=#ffffff;verticalAlign=top;strokeWidth=2;strokeColor=#0080F0;shadow=0;dashed=0;shape=mxgraph.ios7.icons.document;" parent="8JhQtjsmq_hKnZak356e-103" vertex="1">
          <mxGeometry width="30" height="36.28000000000004" as="geometry" />
        </mxCell>
        <mxCell id="8JhQtjsmq_hKnZak356e-102" value=".h" style="text;html=1;strokeColor=none;fillColor=none;align=center;verticalAlign=middle;whiteSpace=wrap;rounded=0;" parent="8JhQtjsmq_hKnZak356e-103" vertex="1">
          <mxGeometry y="3.139999999999989" width="30" height="30.00000000000003" as="geometry" />
        </mxCell>
        <mxCell id="8JhQtjsmq_hKnZak356e-108" value="" style="group;fontStyle=1" parent="1" vertex="1" connectable="0">
          <mxGeometry x="860" y="270" width="40" height="50" as="geometry" />
        </mxCell>
        <mxCell id="8JhQtjsmq_hKnZak356e-109" value="" style="group" parent="8JhQtjsmq_hKnZak356e-108" vertex="1" connectable="0">
          <mxGeometry width="40" height="50" as="geometry" />
        </mxCell>
        <mxCell id="8JhQtjsmq_hKnZak356e-110" value="C Sources" style="html=1;verticalLabelPosition=bottom;align=center;labelBackgroundColor=#ffffff;verticalAlign=top;strokeWidth=2;strokeColor=#0080F0;shadow=0;dashed=0;shape=mxgraph.ios7.icons.documents;" parent="8JhQtjsmq_hKnZak356e-109" vertex="1">
          <mxGeometry width="40" height="50" as="geometry" />
        </mxCell>
        <mxCell id="8JhQtjsmq_hKnZak356e-111" value=".c" style="text;html=1;strokeColor=none;fillColor=none;align=center;verticalAlign=middle;whiteSpace=wrap;rounded=0;" parent="8JhQtjsmq_hKnZak356e-109" vertex="1">
          <mxGeometry y="15" width="30" height="30" as="geometry" />
        </mxCell>
        <mxCell id="8JhQtjsmq_hKnZak356e-112" style="edgeStyle=orthogonalEdgeStyle;rounded=0;orthogonalLoop=1;jettySize=auto;html=1;exitX=1;exitY=0.5;exitDx=0;exitDy=0;" parent="1" source="8JhQtjsmq_hKnZak356e-78" target="8JhQtjsmq_hKnZak356e-110" edge="1">
          <mxGeometry relative="1" as="geometry">
            <Array as="points">
              <mxPoint x="810" y="198" />
              <mxPoint x="810" y="300" />
            </Array>
          </mxGeometry>
        </mxCell>
        <mxCell id="8JhQtjsmq_hKnZak356e-113" style="edgeStyle=orthogonalEdgeStyle;rounded=0;orthogonalLoop=1;jettySize=auto;html=1;exitX=1;exitY=0.5;exitDx=0;exitDy=0;entryX=0;entryY=0.5;entryDx=0;entryDy=0;" parent="1" source="8JhQtjsmq_hKnZak356e-44" target="8JhQtjsmq_hKnZak356e-102" edge="1">
          <mxGeometry relative="1" as="geometry">
            <Array as="points">
              <mxPoint x="440" y="228" />
              <mxPoint x="440" y="150" />
              <mxPoint x="840" y="150" />
              <mxPoint x="840" y="218" />
            </Array>
          </mxGeometry>
        </mxCell>
        <mxCell id="8JhQtjsmq_hKnZak356e-118" value="" style="edgeStyle=orthogonalEdgeStyle;rounded=0;orthogonalLoop=1;jettySize=auto;html=1;entryX=0.004;entryY=0.338;entryDx=0;entryDy=0;entryPerimeter=0;" parent="1" source="8JhQtjsmq_hKnZak356e-65" target="8JhQtjsmq_hKnZak356e-96" edge="1">
          <mxGeometry relative="1" as="geometry">
            <Array as="points">
              <mxPoint x="720" y="275" />
              <mxPoint x="720" y="275" />
            </Array>
          </mxGeometry>
        </mxCell>
        <mxCell id="8JhQtjsmq_hKnZak356e-121" value="" style="group" parent="1" vertex="1" connectable="0">
          <mxGeometry x="860" y="110" width="30" height="36.27999999999997" as="geometry" />
        </mxCell>
        <mxCell id="8JhQtjsmq_hKnZak356e-59" value="Deployment&lt;br&gt;Spec" style="html=1;verticalLabelPosition=bottom;align=center;labelBackgroundColor=#ffffff;verticalAlign=top;strokeWidth=2;strokeColor=#0080F0;shadow=0;dashed=0;shape=mxgraph.ios7.icons.document;" parent="8JhQtjsmq_hKnZak356e-121" vertex="1">
          <mxGeometry width="30" height="36.28" as="geometry" />
        </mxCell>
        <mxCell id="8JhQtjsmq_hKnZak356e-100" value=".json" style="text;html=1;strokeColor=none;fillColor=none;align=center;verticalAlign=middle;whiteSpace=wrap;rounded=0;" parent="8JhQtjsmq_hKnZak356e-121" vertex="1">
          <mxGeometry y="3.1399999999999864" width="30" height="30" as="geometry" />
        </mxCell>
        <mxCell id="8JhQtjsmq_hKnZak356e-125" value="Compilation&lt;br&gt;Linking&lt;br&gt;Deployment" style="ellipse;shape=cloud;whiteSpace=wrap;html=1;" parent="1" vertex="1">
          <mxGeometry x="910" y="174.07" width="130" height="88.14" as="geometry" />
        </mxCell>
        <mxCell id="8JhQtjsmq_hKnZak356e-126" value="" style="edgeStyle=orthogonalEdgeStyle;rounded=0;orthogonalLoop=1;jettySize=auto;html=1;" parent="1" source="8JhQtjsmq_hKnZak356e-100" target="8JhQtjsmq_hKnZak356e-125" edge="1">
          <mxGeometry relative="1" as="geometry" />
        </mxCell>
        <mxCell id="8JhQtjsmq_hKnZak356e-127" value="" style="edgeStyle=orthogonalEdgeStyle;rounded=0;orthogonalLoop=1;jettySize=auto;html=1;entryX=0.103;entryY=0.498;entryDx=0;entryDy=0;entryPerimeter=0;" parent="1" source="8JhQtjsmq_hKnZak356e-102" target="8JhQtjsmq_hKnZak356e-125" edge="1">
          <mxGeometry relative="1" as="geometry" />
        </mxCell>
        <mxCell id="8JhQtjsmq_hKnZak356e-130" value="" style="edgeStyle=orthogonalEdgeStyle;rounded=0;orthogonalLoop=1;jettySize=auto;html=1;" parent="1" source="8JhQtjsmq_hKnZak356e-110" target="8JhQtjsmq_hKnZak356e-125" edge="1">
          <mxGeometry relative="1" as="geometry" />
        </mxCell>
        <mxCell id="vNIU1r1wY8Vf96UELjK_-76" value="" style="group" vertex="1" connectable="0" parent="1">
          <mxGeometry x="980" y="350" width="40" height="50" as="geometry" />
        </mxCell>
        <mxCell id="vNIU1r1wY8Vf96UELjK_-77" value="" style="group" vertex="1" connectable="0" parent="vNIU1r1wY8Vf96UELjK_-76">
          <mxGeometry width="40" height="50" as="geometry" />
        </mxCell>
        <mxCell id="vNIU1r1wY8Vf96UELjK_-78" value="(precompiled)&lt;br&gt;target libraries" style="html=1;verticalLabelPosition=bottom;align=center;labelBackgroundColor=#ffffff;verticalAlign=top;strokeWidth=2;strokeColor=#0080F0;shadow=0;dashed=0;shape=mxgraph.ios7.icons.documents;" vertex="1" parent="vNIU1r1wY8Vf96UELjK_-77">
          <mxGeometry width="40" height="50" as="geometry" />
        </mxCell>
        <mxCell id="vNIU1r1wY8Vf96UELjK_-79" value=".o" style="text;html=1;strokeColor=none;fillColor=none;align=center;verticalAlign=middle;whiteSpace=wrap;rounded=0;" vertex="1" parent="vNIU1r1wY8Vf96UELjK_-77">
          <mxGeometry y="15" width="30" height="30" as="geometry" />
        </mxCell>
        <mxCell id="vNIU1r1wY8Vf96UELjK_-81" value="" style="edgeStyle=orthogonalEdgeStyle;rounded=0;orthogonalLoop=1;jettySize=auto;html=1;entryX=0.693;entryY=0.939;entryDx=0;entryDy=0;entryPerimeter=0;" edge="1" parent="1" source="vNIU1r1wY8Vf96UELjK_-78" target="8JhQtjsmq_hKnZak356e-125">
          <mxGeometry relative="1" as="geometry" />
        </mxCell>
      </root>
    </mxGraphModel>
  </diagram>
  <diagram id="7Kcyx0Cad2ZCsybxyNOb" name="Page-2">
    <mxGraphModel dx="2074" dy="1039" grid="1" gridSize="10" guides="1" tooltips="1" connect="1" arrows="1" fold="1" page="1" pageScale="1" pageWidth="850" pageHeight="1100" math="0" shadow="0">
      <root>
        <mxCell id="0" />
        <mxCell id="1" parent="0" />
        <mxCell id="dRDLrgZyQowAOv4PKUXN-1" value="File(s)" style="html=1;verticalLabelPosition=bottom;align=center;labelBackgroundColor=#ffffff;verticalAlign=top;strokeWidth=2;strokeColor=#0080F0;shadow=0;dashed=0;shape=mxgraph.ios7.icons.documents;" parent="1" vertex="1">
          <mxGeometry x="17.22" y="10" width="32.05" height="40" as="geometry" />
        </mxCell>
        <mxCell id="XQMGvNzau4uiDRwTC6VA-2" value="Internal&lt;br&gt;Representation" style="sketch=0;aspect=fixed;pointerEvents=1;shadow=0;dashed=0;html=1;strokeColor=none;labelPosition=center;verticalLabelPosition=bottom;verticalAlign=top;align=center;fillColor=#00188D;shape=mxgraph.azure.code_file" parent="1" vertex="1">
          <mxGeometry x="103.9" y="10" width="37.6" height="40" as="geometry" />
        </mxCell>
        <mxCell id="XQMGvNzau4uiDRwTC6VA-3" value="Tool" style="rhombus;whiteSpace=wrap;html=1;verticalAlign=top;labelPosition=center;verticalLabelPosition=bottom;align=center;" parent="1" vertex="1">
          <mxGeometry x="200" y="5" width="46.5" height="50" as="geometry" />
        </mxCell>
      </root>
    </mxGraphModel>
  </diagram>
</mxfile>
